<?xml version="1.0" standalone="no"?>
<!DOCTYPE svg PUBLIC "-//W3C//DTD SVG 20010904//EN"
 "http://www.w3.org/TR/2001/REC-SVG-20010904/DTD/svg10.dtd">
<svg version="1.0" xmlns="http://www.w3.org/2000/svg"
 width="500.000000pt" height="500.000000pt" viewBox="0 0 500.000000 500.000000"
 preserveAspectRatio="xMidYMid meet">
<metadata>
Created by potrace 1.14, written by Peter Selinger 2001-2017
</metadata>
<g transform="translate(0.000000,500.000000) scale(0.100000,-0.100000)"
fill="#000000" stroke="none">
<path d="M845 3819 c-327 -39 -565 -205 -646 -451 -21 -64 -24 -91 -24 -218 0
-158 12 -215 65 -319 81 -160 184 -240 536 -412 317 -155 364 -191 364 -284 0
-115 -115 -173 -320 -162 -180 10 -403 67 -579 148 -46 22 -85 39 -87 39 -2 0
-4 -124 -4 -275 l0 -275 38 -19 c67 -34 243 -91 331 -107 118 -21 410 -30 508
-15 127 19 173 31 270 67 183 70 319 186 394 339 55 113 72 189 72 320 0 238
-85 401 -277 533 -40 28 -188 107 -327 176 -332 162 -377 198 -366 294 7 64
52 105 133 122 123 26 337 -12 543 -95 l106 -42 92 231 c51 127 93 236 93 243
0 19 -216 97 -370 132 -167 38 -378 50 -545 30z"/>
<path d="M2122 2648 l3 -1153 275 0 275 0 -1 600 c-1 524 -11 873 -30 1020 -3
27 -2 35 5 25 5 -8 113 -379 241 -825 127 -445 234 -813 236 -817 3 -4 137 -8
298 -8 l293 0 76 268 c41 147 146 520 233 829 87 310 159 561 161 559 3 -2 -1
-114 -7 -247 -6 -139 -10 -494 -8 -824 l3 -580 285 0 285 0 3 960 c2 528 0
1047 -4 1153 l-6 192 -412 0 -413 0 -177 -617 c-254 -882 -288 -997 -296
-1006 -10 -11 9 -71 -246 793 -119 404 -223 756 -231 783 l-15 47 -414 0 -414
0 2 -1152z"/>
</g>
</svg>
